# xmcd CD database file
#
# Track frame offsets:
#	150
#	18952
#	35995
#	57580
#	73092
#	92305
#	107305
#	128512
#	168665
#	187027
#	202327
#	223415
#	249455
#
# Disc length: 3957 seconds
#
# Revision: 1
# Processed by: cddbd v1.5.2PL0 Copyright (c) Steve Scherf et al.
# Submitted via: CDex 1.51
#
DISCID=c30f730d
DTITLE=Los Lonely Boys - Los Lonely Boys
DYEAR=2003
DGENRE=BluesRock
TTITLE0=Senorita
TTITLE1=Heaven
TTITLE2=Crazy Dream
TTITLE3=Dime Mi Amor
TTITLE4=Hollywood
TTITLE5=More Than Love
TTITLE6=Nobody Else
TTITLE7=Onda
TTITLE8=Real Emotions
TTITLE9=Tell Me Why
TTITLE10=Velvet Sky
TTITLE11=La Contestacion
TTITLE12=v
EXTD=YEAR: 2003
EXTT0=
EXTT1=
EXTT2=
EXTT3=
EXTT4=
EXTT5=
EXTT6=
EXTT7=
EXTT8=
EXTT9=
EXTT10=
EXTT11=
EXTT12=
PLAYORDER=
